<svg width="156" height="156" xmlns="http://www.w3.org/2000/svg" xmlns:xlink="http://www.w3.org/1999/xlink" xml:space="preserve" overflow="hidden"><g transform="translate(-532 -252)"><path d="M600.25 295.875 626.25 295.875 626.25 291C626.25 287.425 623.325 284.5 619.75 284.5L551.5 284.5C547.925 284.5 545 287.425 545 291L545 334.875C545 338.45 547.925 341.375 551.5 341.375L561.25 341.375 561.25 357.625 577.5 341.375 587.25 341.375 587.25 308.875C587.25 301.725 593.1 295.875 600.25 295.875Z"/><path d="M668.5 302.375 600.25 302.375C596.675 302.375 593.75 305.3 593.75 308.875L593.75 352.75C593.75 356.325 596.675 359.25 600.25 359.25L642.5 359.25 658.75 375.5 658.75 359.25 668.5 359.25C672.075 359.25 675 356.325 675 352.75L675 308.875C675 305.3 672.075 302.375 668.5 302.375Z"/></g></svg>