<svg width="96" height="96" xmlns="http://www.w3.org/2000/svg" xmlns:xlink="http://www.w3.org/1999/xlink" xml:space="preserve" overflow="hidden"><g transform="translate(-853 -204)"><path d="M900.979 214C880.003 213.999 862.999 231.003 862.998 251.979 862.997 272.955 880.001 289.959 900.977 289.96 921.953 289.961 938.958 272.957 938.958 251.981 938.958 251.98 938.958 251.978 938.958 251.977 938.966 231.011 921.977 214.008 901.011 214 901 214 900.99 214 900.979 214ZM904.909 272.476C904.486 273.465 903.698 274.253 902.709 274.676 902.2 274.892 901.653 275.003 901.1 275 899.996 275.002 898.937 274.566 898.155 273.787 897.778 273.409 897.476 272.963 897.266 272.472 897.049 271.963 896.938 271.415 896.941 270.861 896.938 269.757 897.375 268.697 898.155 267.915 899.772 266.294 902.397 266.29 904.018 267.907 904.021 267.91 904.023 267.912 904.026 267.915L904.026 267.915C904.405 268.296 904.707 268.746 904.915 269.242 905.132 269.754 905.242 270.305 905.24 270.861 905.241 271.416 905.129 271.965 904.909 272.474ZM908.44 254.916C905.708 256.563 904.021 259.505 903.979 262.694L897.979 262.694C898.015 257.44 900.763 252.578 905.245 249.837 909.003 247.482 910.139 242.526 907.784 238.768 905.428 235.011 900.473 233.874 896.715 236.23 894.371 237.699 892.949 240.271 892.95 243.037L886.95 243.037C886.947 235.288 893.226 229.005 900.975 229.002 908.723 228.999 915.007 235.278 915.01 243.026 915.012 247.856 912.53 252.346 908.44 254.914Z"/></g></svg>