<svg width="109" height="109" xmlns="http://www.w3.org/2000/svg" xmlns:xlink="http://www.w3.org/1999/xlink" xml:space="preserve" overflow="hidden"><g transform="translate(-243 -234)"><path d="M325.885 327.104 269.115 327.104 269.115 256.708 281.604 256.708 281.604 263.521 313.396 263.521 313.396 256.708 325.885 256.708ZM297.5 247.625C299.381 247.625 300.906 249.15 300.906 251.031 300.906 252.913 299.381 254.438 297.5 254.438 295.619 254.438 294.094 252.913 294.094 251.031 294.063 249.181 295.538 247.656 297.388 247.625 297.425 247.624 297.463 247.624 297.5 247.625ZM328.156 249.896 308.854 249.896 308.854 247.625C308.854 245.117 306.821 243.083 304.312 243.083L290.688 243.083C288.179 243.083 286.146 245.117 286.146 247.625L286.146 249.896 266.844 249.896C264.336 249.896 262.302 251.929 262.302 254.438L262.302 329.375C262.302 331.883 264.336 333.917 266.844 333.917L328.156 333.917C330.664 333.917 332.698 331.883 332.698 329.375L332.698 254.438C332.698 251.929 330.664 249.896 328.156 249.896Z"/><path d="M299.771 272.604 319.073 272.604 319.073 277.146 299.771 277.146Z"/><path d="M299.771 286.229 319.073 286.229 319.073 290.771 299.771 290.771Z"/><path d="M299.771 299.854 319.073 299.854 319.073 304.396 299.771 304.396Z"/><path d="M299.771 313.479 319.073 313.479 319.073 318.021 299.771 318.021Z"/><path d="M276.73 274.648 279.106 272.271 282.058 275.224 289.552 267.73 291.928 270.106 282.058 279.976 276.73 274.648Z"/><path d="M276.73 288.273 279.106 285.896 282.058 288.849 289.552 281.355 291.928 283.731 282.058 293.601 276.73 288.273Z"/><path d="M276.73 301.898 279.106 299.521 282.058 302.474 289.552 294.98 291.928 297.356 282.058 307.226 276.73 301.898Z"/><path d="M276.73 315.523 279.106 313.146 282.058 316.099 289.552 308.605 291.928 310.981 282.058 320.851 276.73 315.523Z"/></g></svg>