<svg width="96" height="96" xmlns="http://www.w3.org/2000/svg" xmlns:xlink="http://www.w3.org/1999/xlink" xml:space="preserve" overflow="hidden"><g transform="translate(-592 -312)"><path d="M646.764 367.3C647.89 368.394 647.916 370.194 646.822 371.32 646.803 371.34 646.784 371.359 646.764 371.378L641.882 372.986 641.021 372.125 642.629 367.243C643.795 366.138 645.629 366.163 646.764 367.3ZM668.824 337.831 640.624 366.094 637 377.007 647.97 373.388 676.176 345.188Z"/><path d="M682.318 335.767 678.24 331.689C677.356 330.785 675.907 330.768 675.003 331.652 674.991 331.664 674.978 331.677 674.966 331.689L670.945 335.71 678.24 343 682.26 338.98C683.162 338.186 683.25 336.812 682.456 335.91 682.412 335.861 682.366 335.813 682.318 335.767Z"/><path d="M618 377 633.842 377 635.168 373 618 373 618 377Z"/><path d="M618 353 649.448 353 653.44 349 618 349 618 353Z"/><path d="M662 363.6 662 394 612 394 612 332 623 332 623 338 651 338 651 332 662 332 662 340.422 666.7 335.71 666.7 335.71 666.871 335.539 668 334.41 668 330C668 327.791 666.209 326 664 326L647 326 647 324C647 321.791 645.209 320 643 320L631 320C628.791 320 627 321.791 627 324L627 326 610 326C607.791 326 606 327.791 606 330L606 396C606 398.209 607.791 400 610 400L664 400C666.209 400 668 398.209 668 396L668 357.6ZM634.864 324.864C635.429 324.298 636.2 323.986 637 324 638.657 324 640 325.343 640 327 640 328.657 638.657 330 637 330 635.343 330 634 328.657 634 327 633.986 326.2 634.298 325.429 634.864 324.864Z"/><path d="M618 365 637.448 365 641.44 361 618 361 618 365Z"/></g></svg>